<?xml version="1.0" encoding="UTF-8"?>
<svg id="Camada_1" data-name="Camada 1" xmlns="http://www.w3.org/2000/svg" viewBox="0 0 1423.41 1568.87">
  <defs>
    <style>
      .cls-1 {
        fill: #036147;
      }
    </style>
  </defs>
  <path class="cls-1" d="M401.12,1048.84c-46.78-18.79-67.38-123.53-44.44-156.89,9.98-14.51,43.53,0,119.71-47.16,20.17-12.49,32.38-46.8,35.37-70.74h0c3.63-48.97-14.26-63.48-25.63-74.08-48.28-44.99-152.23,22.95-178.42,122.14-16.67,63.16-21.4,196.81,61.21,281.59,79.65,81.74,283.53,21.01,357.77-57.33-42.67-212.57-56.3-528.24,89.07-706.67,129.93-159.47,377.25-85.08,397.82,116.42,24.02,235.28-151.38,450.77-280.81,629.76,78.44,98.3,215.01,52.19,310,6.21l48.62,155.28c-128,49.67-259.36,81.92-388.61,14.81-39.63-20.58-63.55-49.78-100.03-71.73-174.14,127.85-438.54,207.87-590.89-15.22-140.03-205.04-72.38-408.89,23.75-534.04,131.46-171.15,346.88-122.88,399.48,4.08,62.16,150.03,23.13,308.34-233.98,403.56ZM1036.21,434.47c-65.34-64.93-139.75,43.15-160.26,101.37-42.81,121.53-24.97,246.8-21.52,371.68,13.89,15.61,80.81-86.62,89.56-99.71,51.2-76.55,174.18-291.9,92.21-373.35Z"/>
</svg>